<svg width="500" height="500" viewBox="0 0 500 500" fill="none" xmlns="http://www.w3.org/2000/svg">
<path d="M283.508 73.9746C282.135 73.9725 280.755 74.0731 279.378 74.2594C273.872 75.0047 268.441 77.2766 263.957 81.2581C263.957 81.2649 263.957 81.2717 263.957 81.2785L167.887 166.667H98.9583C73.2551 166.667 52.0833 187.839 52.0833 213.542V286.458C52.0833 312.161 73.2551 333.333 98.9583 333.333H167.887L263.957 418.721C272.923 426.693 285.64 427.866 295.268 423.543C304.895 419.221 312.5 408.931 312.5 396.932V103.068C312.5 91.0736 304.916 80.781 295.288 76.4567C291.677 74.8351 287.629 73.981 283.508 73.9746ZM403.707 124.797C400.996 124.785 398.329 125.48 395.968 126.811C393.607 128.142 391.632 130.065 390.239 132.39C388.845 134.715 388.081 137.363 388.02 140.073C387.959 142.783 388.605 145.462 389.893 147.847C425.927 216.855 425.927 283.145 389.893 352.152C388.904 353.975 388.289 355.977 388.082 358.04C387.874 360.103 388.08 362.187 388.686 364.17C389.293 366.152 390.287 367.995 391.613 369.589C392.938 371.184 394.568 372.499 396.406 373.457C398.245 374.416 400.256 374.999 402.322 375.172C404.389 375.346 406.469 375.106 408.442 374.468C410.414 373.829 412.24 372.805 413.813 371.453C415.386 370.102 416.674 368.452 417.602 366.597C457.61 289.98 457.61 210.02 417.602 133.403C416.306 130.825 414.322 128.657 411.87 127.138C409.417 125.619 406.592 124.809 403.707 124.797ZM355.957 177.043C353.379 177.153 350.868 177.9 348.648 179.217C346.429 180.534 344.571 182.38 343.239 184.59C341.907 186.8 341.143 189.306 341.016 191.884C340.888 194.461 341.401 197.03 342.509 199.361C358.306 233.928 358.284 266.248 342.427 300.822C341.558 302.689 341.066 304.709 340.98 306.766C340.893 308.824 341.215 310.878 341.925 312.811C342.635 314.744 343.721 316.518 345.119 318.03C346.517 319.542 348.2 320.763 350.072 321.622C351.943 322.481 353.966 322.962 356.024 323.037C358.082 323.112 360.135 322.779 362.064 322.058C363.993 321.337 365.76 320.242 367.264 318.836C368.769 317.429 369.98 315.739 370.829 313.863C389.972 272.124 390.008 228.106 370.931 186.361C369.663 183.48 367.556 181.05 364.884 179.387C362.212 177.725 359.101 176.908 355.957 177.043Z" fill="white"/>
</svg>
